<?xml version="1.0" encoding="utf-8"?>
<!-- Generator: Adobe Illustrator 19.0.0, SVG Export Plug-In . SVG Version: 6.00 Build 0)  -->
<svg version="1.1" id="Layer_1" xmlns="http://www.w3.org/2000/svg" xmlns:xlink="http://www.w3.org/1999/xlink" x="0px" y="0px"
	 viewBox="0 0 486.3 362.7" style="enable-background:new 0 0 486.3 362.7;" xml:space="preserve">
<style type="text/css">
	.st0{fill:#60391B;}
	.st1{fill:#FFFFFF;}
</style>
<g id="XMLID_132_">
	<g id="XMLID_229_">
		<g id="XMLID_170_">
			<g id="XMLID_280_">
				<path id="XMLID_235_" class="st0" d="M171.5,177.7l-11,39.3l-11.6-39.3h-42.2L95,217l-10.9-39.3H33.3L67.7,316h48.7l11.4-29.5
					l11.5,29.5h48.7l34.4-138.3H171.5z M184,311h-41.3l-14.8-37.8h-0.4L112.9,311H71.6L39.7,182.7h40.6l14.4,51.8h0.4l15.3-51.8
					h34.7l15.3,51.8h0.4l14.4-51.8h40.6L184,311z"/>
				<polygon id="XMLID_35_" class="st1" points="215.9,182.7 184,311 142.7,311 127.9,273.1 127.5,273.1 112.9,311 71.6,311 
					39.7,182.7 80.3,182.7 94.7,234.5 95.1,234.5 110.4,182.7 145.1,182.7 160.5,234.5 160.8,234.5 175.3,182.7 				"/>
			</g>
			<g id="XMLID_278_">
				<path id="XMLID_212_" class="st0" d="M262.8,177.7V221h-11.4v-43.3h-28.2L188.7,316h62.6v-49.7h11.4V316H324V177.7H262.8z
					 M319,311h-51.2v-49.7h-21.4V311h-51.2L227,182.7h19.3V226h21.4v-43.3H319V311z"/>
			</g>
			<g id="XMLID_171_">
				<path id="XMLID_214_" class="st0" d="M386.7,212.6h-14.8V234h17.5c8.4,0,14.4-3.7,14.4-11.2
					C403.8,212.8,395.6,212.6,386.7,212.6z M389.4,229h-12.5v-11.4h9.8c11.5,0,12.1,1.3,12.1,5.2C398.8,227.9,393.7,229,389.4,229z
					 M385.3,257.3h-13.4V281h18.4c10.3,0,18.2-2.1,18.2-11.8C408.4,258,398.6,257.3,385.3,257.3z M390.3,276h-13.4v-13.7h8.4
					c16.5,0,18.2,2,18.2,6.9C403.4,272.1,403.4,276,390.3,276z M385.3,257.3h-13.4V281h18.4c10.3,0,18.2-2.1,18.2-11.8
					C408.4,258,398.6,257.3,385.3,257.3z M390.3,276h-13.4v-13.7h8.4c16.5,0,18.2,2,18.2,6.9C403.4,272.1,403.4,276,390.3,276z
					 M403.8,222.8c0-10-8.2-10.2-17.1-10.2h-14.8V234h17.5C397.8,234,403.8,230.2,403.8,222.8z M376.9,217.6h9.8
					c11.5,0,12.1,1.3,12.1,5.2c0,5.1-5.1,6.2-9.4,6.2h-12.5V217.6z M436.1,241.5c7.6-7.3,11.9-16.8,11.9-26.6c0-13.8-6-24-17.8-30.1
					c-9.2-4.8-22-7.1-39.1-7.1h-66.3V316h67.5c40,0,60.2-14.7,60.2-43.7C452.6,258.6,446.5,247.5,436.1,241.5z M392.4,311h-62.5
					V182.7h61.3c28.9,0,51.9,6.8,51.9,32.3c0,13.2-8.5,22.8-16.8,28c13.9,3.6,21.4,15.5,21.4,29.4C447.6,301,425.7,311,392.4,311z
					 M385.3,257.3h-13.4V281h18.4c10.3,0,18.2-2.1,18.2-11.8C408.4,258,398.6,257.3,385.3,257.3z M390.3,276h-13.4v-13.7h8.4
					c16.5,0,18.2,2,18.2,6.9C403.4,272.1,403.4,276,390.3,276z M403.8,222.8c0-10-8.2-10.2-17.1-10.2h-14.8V234h17.5
					C397.8,234,403.8,230.2,403.8,222.8z M376.9,217.6h9.8c11.5,0,12.1,1.3,12.1,5.2c0,5.1-5.1,6.2-9.4,6.2h-12.5V217.6z
					 M386.7,212.6h-14.8V234h17.5c8.4,0,14.4-3.7,14.4-11.2C403.8,212.8,395.6,212.6,386.7,212.6z M389.4,229h-12.5v-11.4h9.8
					c11.5,0,12.1,1.3,12.1,5.2C398.8,227.9,393.7,229,389.4,229z M385.3,257.3h-13.4V281h18.4c10.3,0,18.2-2.1,18.2-11.8
					C408.4,258,398.6,257.3,385.3,257.3z M390.3,276h-13.4v-13.7h8.4c16.5,0,18.2,2,18.2,6.9C403.4,272.1,403.4,276,390.3,276z
					 M385.3,257.3h-13.4V281h18.4c10.3,0,18.2-2.1,18.2-11.8C408.4,258,398.6,257.3,385.3,257.3z M390.3,276h-13.4v-13.7h8.4
					c16.5,0,18.2,2,18.2,6.9C403.4,272.1,403.4,276,390.3,276z M386.7,212.6h-14.8V234h17.5c8.4,0,14.4-3.7,14.4-11.2
					C403.8,212.8,395.6,212.6,386.7,212.6z M389.4,229h-12.5v-11.4h9.8c11.5,0,12.1,1.3,12.1,5.2C398.8,227.9,393.7,229,389.4,229z"
					/>
			</g>
		</g>
		<g id="XMLID_141_">
			<g id="XMLID_155_">
				<polygon id="XMLID_39_" class="st1" points="319,182.7 319,311 267.8,311 267.8,261.2 246.3,261.2 246.3,311 195.1,311 
					227,182.7 246.3,182.7 246.3,226 267.8,226 267.8,182.7 				"/>
			</g>
			<g id="XMLID_151_">
				<path id="XMLID_82_" class="st1" d="M426.3,242.9c8.2-5.2,16.8-14.8,16.8-28c0-25.5-23-32.3-51.9-32.3h-61.3V311h62.5
					c33.3,0,55.2-10,55.2-38.7C447.6,258.4,440.2,246.5,426.3,242.9z M371.9,212.6h14.8c8.9,0,17.1,0.2,17.1,10.2
					c0,7.5-6.1,11.2-14.4,11.2h-17.5V212.6z M371.9,257.3h13.4c13.4,0,23.2,0.7,23.2,11.9c0,9.6-7.8,11.8-18.2,11.8h-18.4V257.3z"/>
			</g>
		</g>
	</g>
	<g id="XMLID_221_">
		<g id="XMLID_228_">
			<path id="XMLID_338_" class="st0" d="M15.6,170.1c20.9-14.3,41.1-28.1,61.3-41.9c13.7-9.3,27.3-18.7,41.1-27.9
				c2.2-1.4,5.1-2.4,7.6-2.4c76.2-0.1,152.3,0,228.5-0.2c7.2,0,13.2,1.4,19.3,5.6c31.8,22.2,64,43.9,96,65.8
				c0.3,0.2,0.6,0.4,1.7,1.1C319,170.1,167.7,170.1,15.6,170.1z"/>
		</g>
		<g id="XMLID_227_">
			<path id="XMLID_336_" class="st0" d="M358.8,89.9c-77.3,0-153.8,0-231,0c5.6-10,10.9-19.7,16.3-29.4c6-10.7,11.9-21.4,18-32
				c0.7-1.2,2.6-2.3,4-2.3c51.4-0.1,102.7-0.1,154.1,0c1.3,0,3.3,0.5,3.8,1.4C335.6,48.1,347.1,68.7,358.8,89.9z"/>
		</g>
		<g id="XMLID_226_">
			<path id="XMLID_334_" class="st0" d="M42.1,142.7c-12.2,8.4-23.1,15.9-35.5,24.5c-2.3-7.5-5.3-14.7-6.5-22.1
				c-1.1-6.6,5.9-10.6,11.4-6.8c7.3,5,15,6,23.4,3.9C36.6,141.7,38.7,142.4,42.1,142.7z"/>
		</g>
		<g id="XMLID_225_">
			<path id="XMLID_332_" class="st0" d="M444,142.4c4.3,0,6.8-0.4,9,0.1c7.7,1.8,14.6,0.8,21.2-3.7c2.1-1.4,6-1.6,8.3-0.6
				c1.9,0.9,4.1,4.6,3.7,6.6c-1.5,7.4-3.9,14.6-6.2,22.5C467.4,158.5,456.5,151,444,142.4z"/>
		</g>
		<g id="XMLID_224_">
			<path id="XMLID_330_" class="st0" d="M188.5,18.5c-7.7,0-16.7,0-27.6,0c2.2-5.9,3.7-11.4,6.4-16.2c2.1-3.8,8.1-2.5,10.8,1.4
				C181.6,8.9,185.3,13.9,188.5,18.5z"/>
		</g>
		<g id="XMLID_223_">
			<path id="XMLID_328_" class="st0" d="M297.3,18.2c3-4.3,6.3-9.5,10.2-14.3c1.5-1.8,4.4-3.4,6.5-3.3c2.1,0.1,5,2.2,5.9,4.2
				c1.9,4,2.7,8.5,4.2,13.5C314,18.2,304.8,18.2,297.3,18.2z"/>
		</g>
		<g id="XMLID_222_">
			<path id="XMLID_326_" class="st0" d="M257,18.4c-9.5,0-18.3,0-27.7,0c3.2-5.2,6.7-9.7,13-10.1C249.2,7.9,253.1,12.6,257,18.4z"/>
		</g>
	</g>
	<g id="XMLID_220_">
		<rect id="XMLID_323_" x="59.6" y="323.3" class="st0" width="367.1" height="39.4"/>
	</g>
	<g id="XMLID_172_">
		<g id="XMLID_173_">
			<path id="XMLID_318_" class="st1" d="M191.7,358.8v-30H206c6.8,0,12.1,1.6,12.1,7.6c0,3.1-2,5.3-3.9,6.5c3.3,0.8,5,3.6,5,6.9
				c0,6.7-5.1,9.1-12.9,9.1H191.7z M201.5,335.8v5h4.1c2,0,3.4-0.9,3.4-2.6c0-2.3-1.9-2.4-4-2.4H201.5z M201.5,346.2v5.5h4.3
				c2.4,0,4.3-0.5,4.3-2.8c0-2.6-2.3-2.8-5.4-2.8H201.5z"/>
		</g>
		<g id="XMLID_204_">
			<path id="XMLID_314_" class="st1" d="M221.6,358.8l10.8-30h10l10.8,30h-9.8l-1.2-4h-9.8l-1.1,4H221.6z M237.3,337.8l-3,10.8h6.2
				L237.3,337.8z"/>
		</g>
		<g id="XMLID_207_">
			<path id="XMLID_311_" class="st1" d="M256.8,358.8v-30h9.8v23h13.5v7H256.8z"/>
		</g>
		<g id="XMLID_209_">
			<path id="XMLID_308_" class="st1" d="M284.6,358.8v-30h9.8v30H284.6z"/>
		</g>
	</g>
	<g id="XMLID_143_">
		<g id="XMLID_150_">
			<path id="XMLID_305_" class="st0" d="M15.6,170.1c20.9-14.3,41.1-28.1,61.3-41.9c13.7-9.3,27.3-18.7,41.1-27.9
				c2.2-1.4,5.1-2.4,7.6-2.4c76.2-0.1,152.3,0,228.5-0.2c7.2,0,13.2,1.4,19.3,5.6c31.8,22.2,64,43.9,96,65.8
				c0.3,0.2,0.6,0.4,1.7,1.1C319,170.1,167.7,170.1,15.6,170.1z"/>
		</g>
		<g id="XMLID_149_">
			<path id="XMLID_303_" class="st0" d="M358.8,89.9c-77.3,0-153.8,0-231,0c5.6-10,10.9-19.7,16.3-29.4c6-10.7,11.9-21.4,18-32
				c0.7-1.2,2.6-2.3,4-2.3c51.4-0.1,102.7-0.1,154.1,0c1.3,0,3.3,0.5,3.8,1.4C335.6,48.1,347.1,68.7,358.8,89.9z"/>
		</g>
		<g id="XMLID_148_">
			<path id="XMLID_301_" class="st0" d="M42.1,142.7c-12.2,8.4-23.1,15.9-35.5,24.5c-2.3-7.5-5.3-14.7-6.5-22.1
				c-1.1-6.6,5.9-10.6,11.4-6.8c7.3,5,15,6,23.4,3.9C36.6,141.7,38.7,142.4,42.1,142.7z"/>
		</g>
		<g id="XMLID_147_">
			<path id="XMLID_299_" class="st0" d="M444,142.4c4.3,0,6.8-0.4,9,0.1c7.7,1.8,14.6,0.8,21.2-3.7c2.1-1.4,6-1.6,8.3-0.6
				c1.9,0.9,4.1,4.6,3.7,6.6c-1.5,7.4-3.9,14.6-6.2,22.5C467.4,158.5,456.5,151,444,142.4z"/>
		</g>
		<g id="XMLID_146_">
			<path id="XMLID_297_" class="st0" d="M188.5,18.5c-7.7,0-16.7,0-27.6,0c2.2-5.9,3.7-11.4,6.4-16.2c2.1-3.8,8.1-2.5,10.8,1.4
				C181.6,8.9,185.3,13.9,188.5,18.5z"/>
		</g>
		<g id="XMLID_145_">
			<path id="XMLID_295_" class="st0" d="M297.3,18.2c3-4.3,6.3-9.5,10.2-14.3c1.5-1.8,4.4-3.4,6.5-3.3c2.1,0.1,5,2.2,5.9,4.2
				c1.9,4,2.7,8.5,4.2,13.5C314,18.2,304.8,18.2,297.3,18.2z"/>
		</g>
		<g id="XMLID_144_">
			<path id="XMLID_293_" class="st0" d="M257,18.4c-9.5,0-18.3,0-27.7,0c3.2-5.2,6.7-9.7,13-10.1C249.2,7.9,253.1,12.6,257,18.4z"/>
		</g>
	</g>
	<g id="XMLID_142_">
		<rect id="XMLID_290_" x="59.6" y="323.3" class="st0" width="367.1" height="39.4"/>
	</g>
	<g id="XMLID_140_">
		<g id="XMLID_137_">
			<path id="XMLID_287_" class="st1" d="M199.8,61.3L199.8,61.3l3.5-18.6h9.5l-7.5,30h-9.7l-3.5-17.4h-0.1l-3.4,17.4H179l-7.5-30
				h9.5l3.4,18.6h0.1l3.6-18.6h8.1L199.8,61.3z"/>
		</g>
		<g id="XMLID_130_">
			<path id="XMLID_283_" class="st1" d="M246.2,57.6c0,10.2-6.9,16-15.8,16c-9.4,0-15.7-5.8-15.7-16.1c0-9.4,6.4-15.6,15.7-15.6
				C241.1,41.9,246.2,49.6,246.2,57.6z M224.5,57.6c0,3.8,1.2,8.6,5.9,8.6c4.3,0,5.9-3.7,5.9-8.6c0-4.1-1.7-8.4-6-8.3
				C225.8,49.3,224.5,53.8,224.5,57.6z"/>
		</g>
		<g id="XMLID_127_">
			<path id="XMLID_277_" class="st1" d="M280.9,57.6c0,10.2-6.9,16-15.8,16c-9.4,0-15.7-5.8-15.7-16.1c0-9.4,6.4-15.6,15.7-15.6
				C275.9,41.9,280.9,49.6,280.9,57.6z M259.3,57.6c0,3.8,1.2,8.6,5.9,8.6c4.3,0,5.9-3.7,5.9-8.6c0-4.1-1.7-8.4-6-8.3
				C260.6,49.3,259.3,53.8,259.3,57.6z"/>
		</g>
		<g id="XMLID_109_">
			<path id="XMLID_273_" class="st1" d="M285.2,72.8v-30h13.2c9.7,0,15.7,4.5,15.7,14.4c0,11.3-6.3,15.6-15.9,15.6H285.2z
				 M295.1,65.7h2.1c4.6,0,7.1-2.4,7.1-8.1c0-6.3-2-7.9-7.3-7.9h-1.9V65.7z"/>
		</g>
	</g>
	<g id="XMLID_107_">
		<g id="XMLID_22_">
			<path id="XMLID_269_" class="st1" d="M163.8,152.8v-30h9.8v10.1h9.3v-10.1h9.8v30h-9.8v-11.6h-9.3v11.6H163.8z"/>
		</g>
		<g id="XMLID_19_">
			<path id="XMLID_265_" class="st1" d="M228.8,137.6c0,10.2-6.9,16-15.8,16c-9.4,0-15.7-5.8-15.7-16.1c0-9.4,6.4-15.6,15.7-15.6
				C223.7,121.9,228.8,129.7,228.8,137.6z M207.1,137.6c0,3.8,1.2,8.6,5.9,8.6c4.3,0,5.9-3.7,5.9-8.6c0-4.1-1.7-8.4-6-8.3
				C208.5,129.3,207.1,133.8,207.1,137.6z"/>
		</g>
		<g id="XMLID_17_">
			<path id="XMLID_262_" class="st1" d="M233.3,122.7h9.8v18c0,3,0.6,5.5,4.6,5.5c3.5,0,4.6-2.3,4.6-5.5v-18h9.8v17
				c0,9.6-4.5,13.9-14.4,13.9c-9.3,0-14.5-3.5-14.5-13.9V122.7z"/>
		</g>
		<g id="XMLID_15_">
			<path id="XMLID_259_" class="st1" d="M283.7,131.5c-0.2-1-0.7-1.7-1.4-2s-1.6-0.5-2.5-0.5c-2.2,0-3.1,0.6-3.1,1.7
				c0,4.5,17.3,1.7,17.3,12.6c0,7-5.8,10.3-14.1,10.3c-7.9,0-13.1-4.6-13.3-10.1h9.4c0.2,1.1,0.8,1.9,1.6,2.4
				c0.8,0.5,1.8,0.8,2.8,0.8c2.5,0,4.1-0.8,4.1-2.2c0-4.5-17.3-1.4-17.3-12.9c0-6.4,5.5-9.6,13-9.6c8.3,0,12.1,4.3,12.8,9.5H283.7z"
				/>
		</g>
		<g id="XMLID_13_">
			<path id="XMLID_256_" class="st1" d="M298.5,152.8v-30h24.5v7h-14.6v4.3h12.4v7h-12.4v4.7h15.2v7H298.5z"/>
		</g>
	</g>
	<g id="XMLID_2_">
		<g id="XMLID_139_">
			<path id="XMLID_250_" class="st1" d="M191.7,358.8v-30H206c6.8,0,12.1,1.6,12.1,7.6c0,3.1-2,5.3-3.9,6.5c3.3,0.8,5,3.6,5,6.9
				c0,6.7-5.1,9.1-12.9,9.1H191.7z M201.5,335.8v5h4.1c2,0,3.4-0.9,3.4-2.6c0-2.3-1.9-2.4-4-2.4H201.5z M201.5,346.2v5.5h4.3
				c2.4,0,4.3-0.5,4.3-2.8c0-2.6-2.3-2.8-5.4-2.8H201.5z"/>
		</g>
		<g id="XMLID_102_">
			<path id="XMLID_246_" class="st1" d="M221.6,358.8l10.8-30h10l10.8,30h-9.8l-1.2-4h-9.8l-1.1,4H221.6z M237.3,337.8l-3,10.8h6.2
				L237.3,337.8z"/>
		</g>
		<g id="XMLID_98_">
			<path id="XMLID_243_" class="st1" d="M256.8,358.8v-30h9.8v23h13.5v7H256.8z"/>
		</g>
		<g id="XMLID_23_">
			<path id="XMLID_240_" class="st1" d="M284.6,358.8v-30h9.8v30H284.6z"/>
		</g>
	</g>
</g>
</svg>
